Coordinates
version=1
nRows=11
nColumns=46
inDegrees=yes

Units are S.I. units (second, meters, Newtons, ...)
Angles are in degrees.

endheader
time	pelvis_tilt	pelvis_list	pelvis_rotation	pelvis_tx	pelvis_ty	pelvis_tz	bb_angle	bb_tx	bb_ty	bb_tz	hip_flexion_r	hip_adduction_r	hip_rotation_r	knee_angle_r	knee_angle_r_beta	ankle_angle_r	subtalar_angle_r	mtp_angle_r	crank_angle_r	hip_flexion_l	hip_adduction_l	hip_rotation_l	knee_angle_l	knee_angle_l_beta	ankle_angle_l	subtalar_angle_l	mtp_angle_l	crank_angle_l	lumbar_extension	lumbar_bending	lumbar_rotation	arm_flex_r	arm_add_r	arm_rot_r	elbow_flex_r	pro_sup_r	wrist_flex_r	wrist_dev_r	arm_flex_l	arm_add_l	arm_rot_l	elbow_flex_l	pro_sup_l	wrist_flex_l	wrist_dev_l
      5.00500000	    -17.05027123	      8.83580883	     -3.98833186	      0.36327855	      1.06857155	     -0.23035844	      0.00000000	      0.50000000	      0.00000000	      0.25000000	     34.82675341	     -9.22132198	      6.59199043	     32.59327848	      0.56886002	     -1.45422785	     -3.18314507	      0.00000000	      0.00000000	     58.60715257	     -4.71533617	     -4.46059860	    110.51505358	      1.92885156	      4.58048391	     -3.63309754	      0.00000000	      0.00000000	    -54.47698002	     -1.94430280	     -6.88557612	     78.87828038	    -27.27362687	     82.35203276	     62.63111341	     58.57981243	      0.00000000	      0.00000000	     50.03704395	    -36.48390209	     48.30191691	     65.98602581	     48.49522620	      0.00000000	      0.00000000
      5.01000000	    -17.19531298	      8.69233898	     -3.43136190	      0.36311545	      1.06743278	     -0.23066890	      0.00000000	      0.50000000	      0.00000000	      0.25000000	     34.01963056	     -9.55101198	      5.33733281	     31.56656573	      0.55094051	     -2.18857750	     -2.93489872	      0.00000000	      0.00000000	     59.78536687	     -4.43882756	     -3.70258014	    111.58034852	      1.94744446	      5.79546266	     -2.79678997	      0.00000000	      0.00000000	    -54.09894535	     -1.82636582	     -7.09816279	     78.15772368	    -27.11600881	     81.80533642	     62.16801209	     58.55097262	      0.00000000	      0.00000000	     50.37818610	    -36.91194292	     49.39798685	     66.24797393	     48.65418902	      0.00000000	      0.00000000
      5.01500000	    -17.42966528	      8.83271501	     -3.18140904	      0.36290473	      1.06659575	     -0.23051333	      0.00000000	      0.50000000	      0.00000000	      0.25000000	     33.43220474	     -9.90843954	      4.83758848	     30.66651950	      0.53523174	     -2.93399128	     -2.51542488	      0.00000000	      0.00000000	     60.90346746	     -4.23365668	     -3.49141496	    112.38170936	      1.96143085	      6.82847278	     -2.96354594	      0.00000000	      0.00000000	    -53.78953303	     -2.21274269	     -7.34246074	     77.70695705	    -27.20235327	     81.81443574	     62.01147110	     58.55440115	      0.00000000	      0.00000000	     50.67683710	    -37.19706866	     49.56234976	     66.37669603	     48.69185710	      0.00000000	      0.00000000
      5.02000000	    -17.70577975	      8.59611788	     -2.66122993	      0.36265677	      1.06583156	     -0.23051467	      0.00000000	      0.50000000	      0.00000000	      0.25000000	     32.75891930	    -10.03142377	      3.80935525	     29.75150369	      0.51926170	     -3.81875315	     -2.33358048	      0.00000000	      0.00000000	     62.13309565	     -4.03585565	     -2.68152689	    113.21940969	      1.97605148	      8.15436109	     -2.04642016	      0.00000000	      0.00000000	    -53.41343761	     -2.13422568	     -7.57440156	     76.74242551	    -26.67166335	     80.74523292	     61.13065088	     58.38734626	      0.00000000	      0.00000000	     51.33706503	    -38.15938490	     51.36204904	     67.12710561	     49.00110356	      0.00000000	      0.00000000
      5.02500000	    -18.09720627	      8.49649175	     -2.31178340	      0.36240339	      1.06513307	     -0.23059528	      0.00000000	      0.50000000	      0.00000000	      0.25000000	     32.29946842	    -10.18038522	      3.07097968	     28.87190258	      0.50390976	     -4.85484116	     -2.02332603	      0.00000000	      0.00000000	     63.40062062	     -3.85383240	     -2.19670068	    113.89114071	      1.98777539	      9.25856309	     -1.88178432	      0.00000000	      0.00000000	    -52.91559409	     -2.28810536	     -7.74025980	     76.00207585	    -26.45294570	     80.24898422	     60.58201994	     58.29771068	      0.00000000	      0.00000000	     51.71841006	    -38.60527456	     52.30842244	     67.46705475	     49.15321162	      0.00000000	      0.00000000
      5.03000000	    -18.39021728	      8.60703284	     -2.06894320	      0.36215511	      1.06498834	     -0.23042516	      0.00000000	      0.50000000	      0.00000000	      0.25000000	     31.81907764	    -10.47616338	      2.59666713	     28.08293686	      0.49013971	     -5.67449559	     -1.59749056	      0.00000000	      0.00000000	     64.42694267	     -3.62267607	     -2.03730035	    114.35918186	      1.99594425	     10.40079778	     -2.08540842	      0.00000000	      0.00000000	    -52.62224243	     -2.67695720	     -7.98694810	     75.62329071	    -26.42027556	     80.23262568	     60.43283257	     58.28544859	      0.00000000	      0.00000000	     52.11503003	    -38.82888285	     52.39207298	     67.57600844	     49.17662563	      0.00000000	      0.00000000
      5.03500000	    -18.68136644	      8.57159868	     -1.61134586	      0.36186618	      1.06507069	     -0.23038340	      0.00000000	      0.50000000	      0.00000000	      0.25000000	     31.26771737	    -10.72203539	      1.75970590	     27.25270864	      0.47564950	     -6.76086915	     -1.50660890	      0.00000000	      0.00000000	     65.46753609	     -3.27580699	     -1.54028472	    114.75606006	      2.00287108	     11.73000799	     -1.34870059	      0.00000000	      0.00000000	    -52.31250798	     -2.87504255	     -8.50598331	     74.25343827	    -25.30232058	     78.36210375	     58.73036709	     57.86068736	      0.00000000	      0.00000000	     53.20052886	    -40.12400356	     54.96192832	     68.41925753	     49.56851560	      0.00000000	      0.00000000
      5.04000000	    -19.03682396	      8.60719720	     -1.31978989	      0.36146301	      1.06515780	     -0.23039063	      0.00000000	      0.50000000	      0.00000000	      0.25000000	     30.91741507	    -10.95775124	      1.17500734	     26.58835427	      0.46405432	     -7.74130140	     -1.16936976	      0.00000000	      0.00000000	     66.53791428	     -2.95605410	     -1.30557626	    115.05501570	      2.00808884	     12.84541946	     -1.64463813	      0.00000000	      0.00000000	    -52.02459020	     -3.14953357	     -8.72921635	     73.96551802	    -25.28757287	     78.37603460	     58.63017914	     57.85278524	      0.00000000	      0.00000000	     53.59107612	    -40.27017792	     54.94844532	     68.50305372	     49.57685765	      0.00000000	      0.00000000
      5.04500000	    -19.42529394	      8.53924993	     -0.95149778	      0.36106711	      1.06547915	     -0.23053046	      0.00000000	      0.50000000	      0.00000000	      0.25000000	     30.59638350	    -11.11063882	      0.54189771	     25.96069800	      0.45309966	     -8.94756844	     -0.77340277	      0.00000000	      0.00000000	     67.61528862	     -2.60818341	     -0.95275062	    115.24320368	      2.01137334	     13.94009036	     -1.74861072	      0.00000000	      0.00000000	    -51.74300521	     -3.27788612	     -8.92068814	     73.61006382	    -25.19402604	     78.28685599	     58.41981111	     57.81507606	      0.00000000	      0.00000000	     53.93870967	    -40.47913644	     55.10288286	     68.65185274	     49.61379377	      0.00000000	      0.00000000
      5.05000000	    -19.73559940	      8.25061343	     -0.53077801	      0.36066772	      1.06596493	     -0.23056493	      0.00000000	      0.50000000	      0.00000000	      0.25000000	     30.11843286	    -11.01289923	     -0.10574177	     25.25237592	      0.44073710	    -10.32288920	     -1.15479880	      0.00000000	      0.00000000	     68.63879321	     -2.35905767	     -0.32703988	    115.45817804	      2.01512536	     15.17455557	     -1.18499955	      0.00000000	      0.00000000	    -51.51850609	     -3.25770137	     -9.25755301	     72.51358685	    -24.04487018	     76.53558287	     56.74912830	     57.34155840	      0.00000000	      0.00000000	     54.92853678	    -41.61401259	     57.19583600	     69.50352818	     49.95457314	      0.00000000	      0.00000000
      5.05500000	    -19.97417369	      8.27948320	     -0.15429072	      0.36029606	      1.06707773	     -0.23031348	      0.00000000	      0.50000000	      0.00000000	      0.25000000	     29.68965993	    -11.22057112	     -0.68650944	     24.68867729	      0.43089871	    -11.58889218	     -1.15778653	      0.00000000	      0.00000000	     69.41782871	     -1.92910072	     -0.13638224	    115.31751872	      2.01267039	     16.11814124	     -1.50687744	      0.00000000	      0.00000000	    -51.49764226	     -3.56598274	     -9.67298810	     72.10365622	    -23.74908812	     76.04019101	     56.31742016	     57.20739443	      0.00000000	      0.00000000	     55.57423073	    -42.00511580	     57.66661676	     69.77260234	     50.03764191	      0.00000000	      0.00000000
